<?xml version="1.0" standalone="no"?><!DOCTYPE svg PUBLIC "-//W3C//DTD SVG 1.1//EN" "http://www.w3.org/Graphics/SVG/1.1/DTD/svg11.dtd"><svg t="1555136700662" class="icon" style="" viewBox="0 0 1024 1024" version="1.1" xmlns="http://www.w3.org/2000/svg" p-id="6226" xmlns:xlink="http://www.w3.org/1999/xlink" width="200" height="200"><defs><style type="text/css"></style></defs><path d="M921.6 614.4V409.6a51.2 51.2 0 0 0-51.2-51.2h-204.8a51.2 51.2 0 0 0-51.2 51.2v204.8h307.2z m-204.885333 307.2h102.4v-204.8h-102.4v204.8zM1024 409.6v307.2h-102.485333V1024h-307.2v-307.2H512V409.6C512 324.864 580.864 256 665.6 256h204.8C955.093333 256 1024 324.864 1024 409.6z m-256.085333-204.8a102.485333 102.485333 0 0 1-102.4-102.4c0-56.490667 45.909333-102.4 102.4-102.4 56.405333 0 102.4 45.909333 102.4 102.4 0 56.490667-45.994667 102.4-102.4 102.4z m-315.733334 457.173333l17.024 100.949334c-2.773333 0.469333-5.674667 0.256-8.448 0.682666v55.466667h-102.4v-55.253333a356.224 356.224 0 0 1-163.029333-67.712l-39.168 39.168-72.405333-72.405334 39.168-39.168a355.669333 355.669333 0 0 1-67.669334-162.986666H0v-102.4h55.253333A355.584 355.584 0 0 1 122.88 195.285333l-39.125333-39.168L156.16 83.712l39.125333 39.168a356.096 356.096 0 0 1 163.072-67.669333V0h102.4v54.997333c45.098667 6.485333 88.661333 21.290667 128.213334 44.16L537.557333 187.733333a255.36 255.36 0 0 0-128-34.218666c-141.184 0-256 114.816-256 256a256.298667 256.298667 0 0 0 298.666667 252.458666z m-42.666666-354.858666a102.4 102.4 0 1 1 0 204.8 102.4 102.4 0 0 1 0-204.8z" fill="#6E9FEE" p-id="6227"></path></svg>