<?xml version="1.0" standalone="no"?><!DOCTYPE svg PUBLIC "-//W3C//DTD SVG 1.1//EN" "http://www.w3.org/Graphics/SVG/1.1/DTD/svg11.dtd"><svg t="1547991774414" class="icon" style="" viewBox="0 0 1024 1024" version="1.1" xmlns="http://www.w3.org/2000/svg" p-id="2716" xmlns:xlink="http://www.w3.org/1999/xlink" width="200" height="200"><defs><style type="text/css"></style></defs><path d="M165.249113 876.562043c-14.128789 0-25.582655-11.453866-25.582655-25.582655 0-68.450998 20.61962-133.537366 59.629075-188.224896 36.262902-50.835805 86.745666-90.939175 145.991002-115.976408 59.127655-24.986067 122.887818-33.215496 184.387497-23.796986 66.254983 10.146081 127.275755 40.777729 176.466084 88.586594 10.131755 9.847276 10.363022 26.043143 0.515746 36.175921-9.846252 10.132778-26.044166 10.364045-36.175921 0.515746-41.511439-40.345893-92.880387-66.177212-148.550291-74.702376-52.137451-7.983835-106.3297-0.945535-156.727531 20.352537-50.523697 21.350261-93.489254 55.431473-124.252909 98.55769-32.787754 45.964868-50.117444 100.776218-50.117444 158.512177C190.831768 865.108177 179.377902 876.562043 165.249113 876.562043z" p-id="2717"></path><path d="M445.730179 620.211561c13.911848 0 27.823696 0 41.735543 0 16.826224 0 18.35709 10.266831 27.762297 24.343431 17.740036 26.553773-28.42233 40.028669-22.599717 64.846914 8.740058 37.244252 17.577331 74.56116 24.571628 112.179942 5.140067 27.64564-26.269293 45.698808-44.852534 64.691371-8.256034-8.757454-46.576805-39.086204-44.482097-50.075489 5.79089-30.374798 11.58178-60.748572 17.373693-91.12337 5.201465-27.27725 9.42465-35.551704-3.237741-59.505255-3.850701-7.284917-18.206664-25.309432-17.774829-33.624818C424.666444 643.444704 440.774307 627.524107 445.730179 620.211561z" p-id="2718"></path><path d="M748.38015 938.191682c-45.814442 0-89.233324-18.187221-122.259508-51.213405-33.026184-33.026184-51.215452-76.445066-51.215452-122.259508 0-45.814442 18.188244-89.234347 51.214429-122.260531 33.025161-33.024138 76.445066-51.212382 122.260531-51.212382s89.233324 18.187221 122.259508 51.213405c33.024138 33.024138 51.212382 76.444043 51.212382 122.259508 0 45.813419-18.187221 89.232301-51.213405 122.258485S794.192545 938.191682 748.38015 938.191682zM748.38015 642.412189c-66.297962 0-122.308627 56.009641-122.308627 122.30658s56.010665 122.30658 122.308627 122.30658c66.296939 0 122.30658-56.009641 122.30658-122.30658S814.677089 642.412189 748.38015 642.412189z" p-id="2719"></path><path d="M714.298937 680.320567l34.458813 65.137533 0.445138 0 32.459273-65.137533 38.906102 0-50.688449 90.704838 43.796482 0 0 30.235628-47.798633 0 0 51.355645L731.861942 852.616678l0-51.355645-49.799196 0 0-30.235628 45.574988 0-52.244898-90.704838L714.298937 680.320567z" p-id="2720"></path><path d="M473.493499 463.686644c-25.312502 0-49.725518-6.889921-70.599941-19.925818-22.667256-14.155395-40.030715-34.994002-50.213635-60.264549-5.281283-13.104459 1.061169-28.009937 14.166651-33.290197 13.106506-5.281283 28.010961 1.062192 33.290197 14.166651 14.305821 35.500539 47.273676 48.148603 73.356728 48.148603 26.082028 0 59.049884-12.649088 73.355705-48.148603 5.281283-13.105482 20.190855-19.447934 33.290197-14.166651 13.105482 5.281283 19.447934 20.185738 14.167674 33.290197-10.183943 25.269523-27.547403 46.109154-50.213635 60.264549C523.219018 456.796724 498.806002 463.686644 473.493499 463.686644z" p-id="2721"></path><path d="M473.491453 570.81657c-30.706349 0-60.672848-6.175653-89.064478-18.356067-27.28646-11.704576-51.875484-28.3947-73.084529-49.603745-21.209044-21.209044-37.897122-45.798069-49.601698-73.084529-12.17939-28.392654-18.355043-58.357106-18.355043-89.063455s6.175653-60.671825 18.355043-89.063455c11.704576-27.28646 28.393677-51.875484 49.601698-73.084529 21.209044-21.210068 45.798069-37.899168 73.084529-49.603745 28.39163-12.17939 58.357106-18.356067 89.064478-18.356067 30.707372 0 60.672848 6.175653 89.065502 18.355043 27.28646 11.704576 51.875484 28.3947 73.084529 49.602721 21.210068 21.209044 37.898145 45.798069 49.603745 73.085552 12.178367 28.392654 18.355043 58.358129 18.355043 89.065502s-6.175653 60.672848-18.355043 89.065502c-11.704576 27.287483-28.393677 51.876508-49.603745 73.085552-21.210068 21.209044-45.799092 37.898145-73.085552 49.602721C534.164301 564.640917 504.198825 570.81657 473.491453 570.81657zM473.491453 161.765267c-47.073108 0-91.808986 18.812461-125.968993 52.973492-34.158984 34.160008-52.971445 78.896908-52.971445 125.970016s18.812461 91.810009 52.971445 125.970016c34.158984 34.160008 78.895885 52.973492 125.968993 52.973492 47.074132 0 91.812055-18.812461 125.97104-52.971445 34.160008-34.158984 52.972469-78.896908 52.972469-125.97104 0-47.074132-18.812461-91.812055-52.972469-125.97104C565.303508 180.577728 520.565585 161.765267 473.491453 161.765267z" p-id="2722"></path></svg>