<?xml version="1.0" standalone="no"?><!DOCTYPE svg PUBLIC "-//W3C//DTD SVG 1.1//EN" "http://www.w3.org/Graphics/SVG/1.1/DTD/svg11.dtd"><svg t="1552379576765" class="icon" style="" viewBox="0 0 1050 1024" version="1.1" xmlns="http://www.w3.org/2000/svg" p-id="4568" xmlns:xlink="http://www.w3.org/1999/xlink" width="205.078125" height="200"><defs><style type="text/css"></style></defs><path d="M1050.25641 262.564103V0H750.171897v93.761641H450.113641v375.099077h-150.029128v-93.761641H0v262.564102h300.084513v-93.787897h150.029128V918.974359H750.145641v93.761641H1050.25641v-262.564103H750.171897v93.787898H525.128205V543.875282h225.043692v93.787897H1050.25641v-262.564102H750.171897v93.761641H525.128205V168.828718h225.043692V262.564103H1050.25641zM225.043692 562.648615H75.014564v-112.534974h150.029128v112.534974z m600.169026 262.564103h150.029128v112.508718h-150.029128V825.238974z m0-375.099077h150.029128v112.534974h-150.029128v-112.534974z m0-375.099077h150.029128v112.534974h-150.029128V75.014564z" fill="#5F94E7" p-id="4569"></path></svg>