<?xml version="1.0" standalone="no"?><!DOCTYPE svg PUBLIC "-//W3C//DTD SVG 1.1//EN" "http://www.w3.org/Graphics/SVG/1.1/DTD/svg11.dtd"><svg t="1556253972698" class="icon" style="" viewBox="0 0 1024 1024" version="1.1" xmlns="http://www.w3.org/2000/svg" p-id="1065" xmlns:xlink="http://www.w3.org/1999/xlink" width="200" height="200"><defs><style type="text/css"></style></defs><path d="M512 0C229.23264 0 0 229.23264 0 512c0 282.7776 229.23264 512 512 512s512-229.2224 512-512c0-282.76736-229.23264-512-512-512z" fill="#4681A0" p-id="1066"></path><path d="M286.72 327.66976a81.92 81.92 0 1 0 0 163.84 81.92 81.92 0 0 0 0-163.84z m215.04 225.28c-45.24032 0-81.92 36.66944-81.92 81.92s36.67968 81.92 81.92 81.92 81.92-36.66944 81.92-81.92-36.67968-81.92-81.92-81.92z m215.04-225.28a81.92 81.92 0 1 0 0 163.84 81.92 81.92 0 0 0 0-163.84z" fill="#3C6E89" p-id="1067"></path><path d="M727.04 215.02976a20.48 20.48 0 0 1 20.48 20.48v552.96a20.48 20.48 0 0 1-40.96 0v-552.96a20.48 20.48 0 0 1 20.48-20.48m-215.04 0a20.48 20.48 0 0 1 20.48 20.48v552.96a20.48 20.48 0 0 1-40.96 0v-552.96a20.48 20.48 0 0 1 20.48-20.48m-215.04 0a20.48 20.48 0 0 1 20.48 20.48v552.96a20.48 20.48 0 0 1-40.96 0v-552.96a20.48 20.48 0 0 1 20.48-20.48m430.08-20.48c-22.58944 0-40.96 18.37056-40.96 40.96v552.96c0 22.58944 18.37056 40.96 40.96 40.96s40.96-18.37056 40.96-40.96v-552.96c0-22.58944-18.37056-40.96-40.96-40.96z m-215.04 0c-22.58944 0-40.96 18.37056-40.96 40.96v552.96c0 22.58944 18.37056 40.96 40.96 40.96s40.96-18.37056 40.96-40.96v-552.96c0-22.58944-18.37056-40.96-40.96-40.96z m-215.04 0c-22.58944 0-40.96 18.37056-40.96 40.96v552.96c0 22.58944 18.37056 40.96 40.96 40.96s40.96-18.37056 40.96-40.96v-552.96c0-22.58944-18.37056-40.96-40.96-40.96z" fill="#70A0BA" p-id="1068"></path><path d="M768 345.7024a81.74592 81.74592 0 0 0-20.48-12.02176v151.81824a81.74592 81.74592 0 0 0 20.48-12.02176V345.7024z m-81.92 139.79648a81.53088 81.53088 0 0 0 20.48 5.30432V328.37632a81.1008 81.1008 0 0 0-20.48 5.30432v151.81824z m-215.04 225.28a80.9984 80.9984 0 0 0 20.48 5.30432V553.65632a80.9984 80.9984 0 0 0-20.48 5.30432v151.81824zM337.92 345.69216a81.7152 81.7152 0 0 0-20.48-12.01152v151.81824a81.7152 81.7152 0 0 0 20.48-12.01152v-127.7952zM552.96 570.9824a81.74592 81.74592 0 0 0-20.48-12.02176v151.81824a81.43872 81.43872 0 0 0 20.48-12.02176V570.9824z m-296.96-85.48352a81.41824 81.41824 0 0 0 20.48 5.30432V328.37632a80.9984 80.9984 0 0 0-20.48 5.30432v151.81824z" fill="#628CA3" p-id="1069"></path><path d="M512 215.02976a20.48 20.48 0 0 0-20.48 20.48v552.96a20.48 20.48 0 0 0 40.96 0v-552.96a20.48 20.48 0 0 0-20.48-20.48z m215.04 0a20.48 20.48 0 0 0-20.48 20.48v552.96a20.48 20.48 0 0 0 40.96 0v-552.96a20.48 20.48 0 0 0-20.48-20.48z m-430.08 0a20.48 20.48 0 0 0-20.48 20.48v552.96a20.48 20.48 0 0 0 40.96 0v-552.96a20.48 20.48 0 0 0-20.48-20.48z" fill="#376B86" p-id="1070"></path><path d="M491.52 553.65632V716.0832c3.35872 0.41984 6.7584 0.70656 10.24 0.70656a81.5104 81.5104 0 0 0 30.72-6.01088V558.96064a81.5104 81.5104 0 0 0-30.72-6.01088c-3.4816 0-6.88128 0.28672-10.24 0.70656z m215.04-225.28V490.8032c3.35872 0.41984 6.7584 0.70656 10.24 0.70656a81.5104 81.5104 0 0 0 30.72-6.01088V333.68064a81.70496 81.70496 0 0 0-30.72-6.01088c-3.4816 0-6.88128 0.28672-10.24 0.70656z m-430.08 0V490.8032c3.35872 0.41984 6.76864 0.70656 10.24 0.70656a81.5104 81.5104 0 0 0 30.72-6.01088V333.68064a81.70496 81.70496 0 0 0-30.72-6.01088c-3.47136 0-6.88128 0.28672-10.24 0.70656z" fill="#305E75" p-id="1071"></path><path d="M296.96 215.02976c-1.78176 0-3.47136 0.29696-5.12 0.72704 8.81664 2.28352 15.36 10.22976 15.36 19.75296v552.96c0 9.53344-6.54336 17.46944-15.36 19.7632 1.64864 0.41984 3.33824 0.7168 5.12 0.7168a20.48 20.48 0 0 0 20.48-20.48v-552.96a20.48 20.48 0 0 0-20.48-20.48z m430.08 0c-1.78176 0-3.47136 0.29696-5.12 0.72704 8.81664 2.28352 15.36 10.22976 15.36 19.75296v552.96c0 9.53344-6.54336 17.46944-15.36 19.7632 1.64864 0.41984 3.33824 0.7168 5.12 0.7168a20.48 20.48 0 0 0 20.48-20.48v-552.96a20.48 20.48 0 0 0-20.48-20.48z m-215.04 0c-1.78176 0-3.47136 0.29696-5.12 0.72704 8.81664 2.28352 15.36 10.22976 15.36 19.75296v552.96c0 9.53344-6.54336 17.46944-15.36 19.7632 1.64864 0.41984 3.33824 0.7168 5.12 0.7168a20.48 20.48 0 0 0 20.48-20.48v-552.96a20.48 20.48 0 0 0-20.48-20.48z" fill="#316078" p-id="1072"></path><path d="M747.52 485.49888V333.68064a82.45248 82.45248 0 0 0-10.24-3.328v158.47424a82.45248 82.45248 0 0 0 10.24-3.328z m-215.04 225.28V558.96064a80.7424 80.7424 0 0 0-10.24-3.31776v158.464a82.45248 82.45248 0 0 0 10.24-3.328z m-215.04-225.28V333.68064a82.45248 82.45248 0 0 0-10.24-3.328v158.47424a82.45248 82.45248 0 0 0 10.24-3.328z" fill="#2D586E" p-id="1073"></path><path d="M296.96 317.42976a81.92 81.92 0 1 0 0 163.84 81.92 81.92 0 0 0 0-163.84z m215.04 225.28c-45.24032 0-81.92 36.66944-81.92 81.92s36.67968 81.92 81.92 81.92 81.92-36.66944 81.92-81.92-36.67968-81.92-81.92-81.92z m215.04-225.28a81.92 81.92 0 1 0 0 163.84 81.92 81.92 0 0 0 0-163.84z" fill="#EDEDED" p-id="1074"></path><path d="M296.96 368.62976a30.72 30.72 0 1 0 0 61.44 30.72 30.72 0 0 0 0-61.44z m215.04 225.28a30.72 30.72 0 1 0 0 61.44 30.72 30.72 0 0 0 0-61.44z m215.04-225.28a30.72 30.72 0 1 0 0 61.44 30.72 30.72 0 0 0 0-61.44z" fill="#C3C3C3" p-id="1075"></path><path d="M296.96 317.42976a81.72544 81.72544 0 0 0-62.80192 29.35808A81.59232 81.59232 0 0 1 286.72 327.66976a81.92 81.92 0 0 1 81.92 81.92 81.55136 81.55136 0 0 1-19.11808 52.56192A81.69472 81.69472 0 0 0 378.88 399.34976a81.92 81.92 0 0 0-81.92-81.92z m430.08 0a81.72544 81.72544 0 0 0-62.80192 29.35808A81.57184 81.57184 0 0 1 716.8 327.66976a81.92 81.92 0 0 1 81.92 81.92 81.57184 81.57184 0 0 1-19.11808 52.56192A81.7152 81.7152 0 0 0 808.96 399.34976a81.92 81.92 0 0 0-81.92-81.92z m-215.04 225.28a81.69472 81.69472 0 0 0-62.80192 29.35808 81.92 81.92 0 0 1 115.37408 115.36384A81.92 81.92 0 0 0 512 542.70976z" fill="#FAFBFC" p-id="1076"></path><path d="M307.2 471.02976a81.92 81.92 0 0 1-81.92-81.92c0-20.0192 7.19872-38.32832 19.11808-52.56192A81.7152 81.7152 0 0 0 215.04 399.34976a81.92 81.92 0 0 0 81.92 81.92 81.69472 81.69472 0 0 0 62.80192-29.35808A81.55136 81.55136 0 0 1 307.2 471.02976z m430.08 0a81.92 81.92 0 0 1-81.92-81.92c0-20.0192 7.19872-38.32832 19.11808-52.56192A81.7152 81.7152 0 0 0 645.12 399.34976a81.92 81.92 0 0 0 81.92 81.92 81.72544 81.72544 0 0 0 62.80192-29.35808A81.57184 81.57184 0 0 1 737.28 471.02976z m-215.04 225.28a81.92 81.92 0 0 1-62.80192-134.48192 81.92 81.92 0 1 0 115.37408 115.36384A81.59232 81.59232 0 0 1 522.24 696.30976z" fill="#D6D6D6" p-id="1077"></path></svg>