<?xml version="1.0" standalone="no"?><!DOCTYPE svg PUBLIC "-//W3C//DTD SVG 1.1//EN" "http://www.w3.org/Graphics/SVG/1.1/DTD/svg11.dtd"><svg t="1555137644326" class="icon" style="" viewBox="0 0 1025 1024" version="1.1" xmlns="http://www.w3.org/2000/svg" p-id="10989" xmlns:xlink="http://www.w3.org/1999/xlink" width="200.1953125" height="200"><defs><style type="text/css"></style></defs><path d="M803.61962 952.248248H221.405405c-73.801802 0-134.278278-59.963964-134.278278-134.278278v-41.001001c0-15.375375 12.812813-28.188188 28.188188-28.188188s28.188188 12.812813 28.188189 28.188188v41.001001c0 43.051051 34.850851 77.901902 77.901901 77.901902h582.726727c43.051051 0 77.901902-34.850851 77.901902-77.901902v-185.017017c0-15.375375 12.812813-28.188188 28.188188-28.188188s28.188188 12.812813 28.188188 28.188188v185.017017c-0.512513 73.801802-60.476476 134.278278-134.79079 134.278278zM115.315315 636.028028c-15.375375 0-28.188188-12.812813-28.188188-28.188188V441.785786c0-15.375375 12.812813-28.188188 28.188188-28.188188s28.188188 12.812813 28.188189 28.188188v166.054054c0 15.887888-12.812813 28.188188-28.188189 28.188188z m794.394395-191.167167c-15.375375 0-28.188188-12.812813-28.188188-28.188188V235.243243c0-43.051051-34.850851-77.901902-77.901902-77.901902H220.892893c-43.051051 0-77.901902 34.850851-77.901902 77.901902v36.900901c0 15.375375-12.812813 28.188188-28.188188 28.188188S87.127127 288.032032 87.127127 272.656657V235.755756c0-73.801802 59.963964-134.278278 134.278278-134.278279h582.726727c73.801802 0 134.278278 59.963964 134.278278 134.278279v180.916917c-0.512513 15.375375-13.325325 28.188188-28.7007 28.188188z" fill="#4E8CEE" p-id="10990"></path><path d="M193.72973 385.409409H28.188188c-15.375375 0-28.188188-12.812813-28.188188-28.188188s12.812813-28.188188 28.188188-28.188188h165.541542c15.375375 0 28.188188 12.812813 28.188188 28.188188s-12.812813 28.188188-28.188188 28.188188zM193.72973 721.105105H28.188188c-15.375375 0-28.188188-12.812813-28.188188-28.188188s12.812813-28.188188 28.188188-28.188188h165.541542c15.375375 0 28.188188 12.812813 28.188188 28.188188s-12.812813 28.188188-28.188188 28.188188z" fill="#BAD4FF" p-id="10991"></path><path d="M691.891892 385.409409H354.658659c-15.375375 0-28.188188-12.812813-28.188189-28.188188s12.812813-28.188188 28.188189-28.188188H691.891892c15.375375 0 28.188188 12.812813 28.188188 28.188188s-12.812813 28.188188-28.188188 28.188188zM691.891892 553.001001H354.658659c-15.375375 0-28.188188-12.812813-28.188189-28.188188s12.812813-28.188188 28.188189-28.188188H691.891892c15.375375 0 28.188188 12.812813 28.188188 28.188188 0 15.887888-12.812813 28.188188-28.188188 28.188188zM691.891892 721.105105H354.658659c-15.375375 0-28.188188-12.812813-28.188189-28.188188s12.812813-28.188188 28.188189-28.188188H691.891892c15.375375 0 28.188188 12.812813 28.188188 28.188188s-12.812813 28.188188-28.188188 28.188188z" fill="#4E8CEE" p-id="10992"></path><path d="M913.80981 638.590591c-61.501502 0-111.727728-50.226226-111.727728-111.727728S852.308308 415.135135 913.80981 415.135135s111.727728 50.226226 111.727728 111.727728-50.226226 111.727728-111.727728 111.727728z m0-167.079079c-30.750751 0-55.351351 24.600601-55.351352 55.351351 0 30.750751 24.600601 55.351351 55.351352 55.351351s55.351351-24.600601 55.351351-55.351351c0-30.750751-24.600601-55.351351-55.351351-55.351351z" fill="#BAD4FF" p-id="10993"></path></svg>