<?xml version="1.0" standalone="no"?><!DOCTYPE svg PUBLIC "-//W3C//DTD SVG 1.1//EN" "http://www.w3.org/Graphics/SVG/1.1/DTD/svg11.dtd"><svg t="1553674456666" class="icon" style="" viewBox="0 0 1024 1024" version="1.1" xmlns="http://www.w3.org/2000/svg" p-id="2614" xmlns:xlink="http://www.w3.org/1999/xlink" width="200" height="200"><defs><style type="text/css"></style></defs><path d="M811.42887939 888.29433959H212.6389502c-69.72300439 0-113.61359399-14.9166958-134.1863086-45.61055418a66.9109834 66.9109834 0 0 1-6.8798584-60.72589381l3.2752002-5.75485619 104.0864436-136.10394801V467.844875c0-278.4588772 270.223396-331.24580201 272.9356106-331.74192701l4.5639624-0.4302334 115.6630166 0.4302334c2.74516041 0.496125 272.93561059 53.250104 272.93561059 331.74192701v172.2542124l107.42753541 141.8588042c1.32267701 3.24128541 12.27037281 32.04948121-6.8798584 60.72686279-20.5727146 30.69288941-64.4303584 45.60958521-134.1523938 45.60958521z m-693.6166648-85.20171678a16.6037146 16.6037146 0 0 0 2.8779126 12.0058374c4.89438941 6.8469126 23.64830201 22.7568274 91.94785401 22.75682739h598.78992921c68.29955201 0 87.05346459-15.876 91.91587719-22.7558584a16.6696062 16.6696062 0 0 0 2.81008301-12.07269799l-111.56029541-145.86075V467.844875c0-227.5227312-204.8007876-276.6391062-229.4752544-281.7001626H458.914625c-24.4089624 5.126948-229.540177 55.0369292-229.540177 281.7001626v189.3220752L117.8122146 803.09165381zM600.3431958 167.7551416h-50.439052V104.18525a37.90414379 37.90414379 0 0 0-75.74239599 0v63.5698916h-50.43905201V104.18525A88.4090874 88.4090874 0 0 1 512.0329458 15.875a88.4090874 88.4090874 0 0 1 88.31025 88.31025v63.5698916zM512.0329458 1008.125c-99.2908916 0-171.327854-66.0175708-171.327854-157.0400354h50.4719978c0 62.7762854 49.6783916 106.6009834 120.8558562 106.6009834 71.1435498 0 120.8558562-43.79175219 120.85585621-106.60098341h50.44002099C683.3617688 942.0415376 611.2908916 1008.125 512.0329458 1008.125z" p-id="2615"></path></svg>