<?xml version="1.0" standalone="no"?><!DOCTYPE svg PUBLIC "-//W3C//DTD SVG 1.1//EN" "http://www.w3.org/Graphics/SVG/1.1/DTD/svg11.dtd"><svg t="1553674374987" class="icon" style="" viewBox="0 0 1024 1024" version="1.1" xmlns="http://www.w3.org/2000/svg" p-id="2504" xmlns:xlink="http://www.w3.org/1999/xlink" width="200" height="200"><defs><style type="text/css"></style></defs><path d="M852.122 763.796l-65.586-115.387V407.254c0-50.283-18.266-103.295-51.437-149.272-33.742-46.775-81.115-83.375-133.387-103.06a21.34 21.34 0 0 0-0.92-0.322c-1.2-0.387-5.655-1.81-12.199-3.691v-8.032c0-43.51-35.398-78.908-78.908-78.908s-78.908 35.398-78.908 78.908v7.454c-6.096 1.742-9.96 2.98-10.404 3.124-0.23 0.074-0.46 0.153-0.685 0.235-53.071 19.217-101.254 55.778-135.67 102.946-33.791 46.308-52.399 99.799-52.399 150.62v241.156l-70.183 123.52c-8.445 14.721-8.391 33.049 0.145 47.84 8.485 14.694 24.367 23.822 41.45 23.822h173.434c9.945 64.585 65.897 114.198 133.22 114.198s123.278-49.614 133.22-114.198h173.406c26.437 0 47.944-21.48 47.944-47.883 0.002-11.987-4.284-23.197-12.133-31.915zM509.686 105.158c20.154 0 36.666 15.889 37.67 35.797a304.696 304.696 0 0 0-12.765-2.152 20.694 20.694 0 0 0-5.426-0.067c-0.734-0.108-1.482-0.22-2.24-0.336-5.26-0.794-11.225-1.693-17.877-1.693-6.647 0-12.607 0.898-17.868 1.691l-1.907 0.286a20.607 20.607 0 0 0-5.627 0.014 294.702 294.702 0 0 0-11.599 1.877c1.191-19.728 17.614-35.417 37.64-35.417z m0 811.444c-44.535 0-81.88-31.275-91.29-73.008H600.98c-9.412 41.733-46.757 73.008-91.293 73.008z m306.627-114.198h-613.28c-2.415 0-4.63-1.238-5.777-3.226-1.225-2.123-1.26-4.71-0.047-6.825l72.913-128.324a20.589 20.589 0 0 0 2.69-10.174v-246.6c0-89.142 68.983-181.372 160.527-214.702 3.01-0.95 26.684-8.3 50.564-12.227a20.51 20.51 0 0 0 4.327 0.016c3.214-0.326 6.202-0.777 9.09-1.213 4.383-0.66 8.168-1.231 11.725-1.231 3.563 0 7.35 0.57 11.735 1.233 2.886 0.436 5.87 0.885 9.08 1.212a20.548 20.548 0 0 0 3.918 0.025c24.783 4.152 50.072 12.063 53.888 13.28 89.93 34.09 157.68 125.832 157.68 213.606v246.6c0 3.568 0.928 7.076 2.69 10.177l69.538 122.334a20.558 20.558 0 0 0 3.598 4.638c1.222 1.181 1.896 2.851 1.896 4.707-0.001 3.753-2.967 6.694-6.755 6.694z" fill="#DB4C3F" p-id="2505"></path></svg>