<?xml version="1.0" standalone="no"?><!DOCTYPE svg PUBLIC "-//W3C//DTD SVG 1.1//EN" "http://www.w3.org/Graphics/SVG/1.1/DTD/svg11.dtd"><svg t="1555136432146" class="icon" style="" viewBox="0 0 1024 1024" version="1.1" xmlns="http://www.w3.org/2000/svg" p-id="3304" xmlns:xlink="http://www.w3.org/1999/xlink" width="200" height="200"><defs><style type="text/css"></style></defs><path d="M512 1024a512 512 0 1 1 512-512 512 512 0 0 1-512 512z m48.872727-358.213818c60.602182-19.549091 98.722909-43.659636 114.362182-72.657455a114.129455 114.129455 0 0 0 9.774546-21.178182h85.364363c-0.651636 27.042909-3.258182 43.659636-7.493818 50.176-3.886545 6.237091-13.335273 9.448727-28.625455 9.728a1619.781818 1619.781818 0 0 1-42.356363-1.954909l8.471273 30.626909c16.290909 1.303273 29.975273 1.954909 41.378909 1.95491 22.807273 0 38.772364-5.818182 47.895272-17.268364s13.963636-45.940364 14.661819-103.936h-111.453091a240.197818 240.197818 0 0 0 2.327272-31.604364h-33.605818a195.793455 195.793455 0 0 1-3.258182 31.604364h-99.700363v30.626909h89.274182c-1.954909 3.258182-3.909818 6.842182-6.190546 10.472727-15.965091 21.829818-50.501818 40.401455-103.284364 55.714909zM335.429818 373.864727h-103.936v161.594182a257.931636 257.931636 0 0 1-19.874909 106.542546l25.762909 23.458909a306.106182 306.106182 0 0 0 23.784727-109.474909h43.333819v61.905454c0 11.403636-3.258182 17.268364-9.774546 17.268364-7.819636 0-15.965091-0.651636-24.762182-1.303273l8.145455 29.649455h26.065454c20.852364 0 31.278545-11.729455 31.278546-34.536728V373.864727z m19.874909 290.909091h31.930182V639.069091l16.290909 25.413818a172.730182 172.730182 0 0 0 46.266182-35.84 260.049455 260.049455 0 0 0 46.917818 35.514182l16.616727-28.997818a242.164364 242.164364 0 0 1-44.311272-33.233455 240.186182 240.186182 0 0 0 28.020363-79.825454v-28.346182h-109.800727V404.48h74.286546a190.091636 190.091636 0 0 1-3.584 38.4 12.544 12.544 0 0 1-7.493819 8.145455 69.992727 69.992727 0 0 1-14.661818 1.303272c-8.797091 0-15.965091-0.325818-21.178182-0.325818l9.122909 28.997818h27.368728c20.852364 0 33.559273-7.168 37.469091-20.852363a395.752727 395.752727 0 0 0 6.190545-86.341819H355.304727v290.909091zM512 93.090909a58.181818 58.181818 0 1 0 58.181818 58.181818 58.181818 58.181818 0 0 0-58.181818-58.181818z m280.878545 322.141091v-27.368727h-138.472727c3.584-6.516364 6.842182-13.684364 10.100364-21.178182l-34.536727-5.213091a167.470545 167.470545 0 0 1-76.241455 79.127273l20.526545 27.042909a350.510545 350.510545 0 0 0 34.909091-24.762182 366.615273 366.615273 0 0 0 40.029091 28.392727 538.437818 538.437818 0 0 1-113.384727 25.739637l15.639273 31.930181a525.730909 525.730909 0 0 0 135.214545-37.794909 438.341818 438.341818 0 0 0 136.145455 36.817455l15.313454-31.604364a461.393455 461.393455 0 0 1-114.036363-24.436363 272 272 0 0 0 68.794181-56.692364z m-161.28 5.213091l0.651637-0.651636H742.4a294.272 294.272 0 0 1-56.040727 35.84 301.300364 301.300364 0 0 1-54.760728-35.188364zM427.636364 603.927273a165.783273 165.783273 0 0 1-40.401455 32.581818v-112.779636h2.583273a206.650182 206.650182 0 0 0 37.818182 80.197818z m39.424-80.151273a212.037818 212.037818 0 0 1-20.526546 53.387636 170.309818 170.309818 0 0 1-27.694545-53.434181h48.221091zM261.818182 480.395636h42.682182v44.962909H261.818182v-44.962909z m0-75.915636h42.682182v45.614545H261.818182v-45.614545z" fill="#6DA8E9" p-id="3305"></path></svg>